{
  "accessors": [
    {
      "bufferView": 2,
      "componentType": 5126,
      "count": 1233,
      "max": [
        60.483665466308594,
        60.483665466308594,
        81.1407470703125
      ],
      "min": [
        -60.483665466308594,
        -60.483665466308594,
        4.5663896344194654e-06
      ],
      "type": "VEC3"
    },
    {
      "bufferView": 2,
      "byteOffset": 14796,
      "componentType": 5126,
      "count": 1233,
      "max": [
        0.9997845888137817,
        0.9997845888137817,
        1.0
      ],
      "min": [
        -0.9997845888137817,
        -0.9997845888137817,
        -0.9998722672462463
      ],
      "type": "VEC3"
    },
    {
      "bufferView": 3,
      "componentType": 5126,
      "count": 1233,
      "max": [
        1.0,
        0.9997846484184265,
        0.9932934045791626,
        1.0
      ],
      "min": [
        -0.999785304069519,
        -0.9999504089355469,
        -0.9932906627655029,
        -1.0
      ],
      "type": "VEC4"
    },
    {
      "bufferView": 1,
      "componentType": 5126,
      "count": 1233,
      "max": [
        0.9941434264183044,
        0.9945985674858093
      ],
      "min": [
        0.007619641721248627,
        0.0066048577427864075
      ],
      "type": "VEC2"
    },
    {
      "bufferView": 0,
      "componentType": 5125,
      "count": 3336,
      "type": "SCALAR"
    },
    {
      "bufferView": 2,
      "byteOffset": 29592,
      "componentType": 5126,
      "count": 9876,
      "max": [
        48.32383728027344,
        48.3238410949707,
        15.383901596069336
      ],
      "min": [
        -48.3238410949707,
        -48.32383728027344,
        -86.62953186035156
      ],
      "type": "VEC3"
    },
    {
      "bufferView": 2,
      "byteOffset": 148104,
      "componentType": 5126,
      "count": 9876,
      "max": [
        1.0,
        1.0,
        1.0
      ],
      "min": [
        -1.0,
        -1.0,
        -1.0
      ],
      "type": "VEC3"
    },
    {
      "bufferView": 3,
      "byteOffset": 19728,
      "componentType": 5126,
      "count": 9876,
      "max": [
        1.0,
        1.0,
        0.9997485280036926,
        1.0
      ],
      "min": [
        -1.0,
        -1.0,
        -0.9999837279319763,
        -1.0
      ],
      "type": "VEC4"
    },
    {
      "bufferView": 1,
      "byteOffset": 9864,
      "componentType": 5126,
      "count": 9876,
      "max": [
        0.9917084574699402,
        0.9879950284957886
      ],
      "min": [
        0.005187997128814459,
        0.008660264313220978
      ],
      "type": "VEC2"
    },
    {
      "bufferView": 0,
      "byteOffset": 13344,
      "componentType": 5125,
      "count": 40656,
      "type": "SCALAR"
    },
    {
      "bufferView": 2,
      "byteOffset": 266616,
      "componentType": 5126,
      "count": 948,
      "max": [
        31.687833786010742,
        31.687833786010742,
        13.042034149169922
      ],
      "min": [
        -31.687833786010742,
        -31.687833786010742,
        -72.29106140136719
      ],
      "type": "VEC3"
    },
    {
      "bufferView": 2,
      "byteOffset": 277992,
      "componentType": 5126,
      "count": 948,
      "max": [
        0.9999944567680359,
        0.9999944567680359,
        0.18592631816864014
      ],
      "min": [
        -0.9999944567680359,
        -0.9999944567680359,
        -0.7139016389846802
      ],
      "type": "VEC3"
    },
    {
      "bufferView": 3,
      "byteOffset": 177744,
      "componentType": 5126,
      "count": 948,
      "max": [
        0.9999998211860657,
        0.9999998211860657,
        0.5279014706611633,
        1.0
      ],
      "min": [
        -0.9999998211860657,
        -0.9999998211860657,
        -0.4939941167831421,
        1.0
      ],
      "type": "VEC4"
    },
    {
      "bufferView": 1,
      "byteOffset": 88872,
      "componentType": 5126,
      "count": 948,
      "max": [
        0.9851334691047668,
        0.9414957165718079
      ],
      "min": [
        0.01465168222784996,
        0.05621028319001198
      ],
      "type": "VEC2"
    },
    {
      "bufferView": 0,
      "byteOffset": 175968,
      "componentType": 5125,
      "count": 2688,
      "type": "SCALAR"
    },
    {
      "bufferView": 2,
      "byteOffset": 289368,
      "componentType": 5126,
      "count": 13713,
      "max": [
        29.52069664001465,
        27.678682327270508,
        74.39237976074219
      ],
      "min": [
        -16.36621856689453,
        -22.745555877685547,
        -3.4355554580688477
      ],
      "type": "VEC3"
    },
    {
      "bufferView": 2,
      "byteOffset": 453924,
      "componentType": 5126,
      "count": 13713,
      "max": [
        1.0,
        1.0,
        1.0
      ],
      "min": [
        -1.0,
        -1.0,
        -1.0
      ],
      "type": "VEC3"
    },
    {
      "bufferView": 3,
      "byteOffset": 192912,
      "componentType": 5126,
      "count": 13713,
      "max": [
        1.0,
        1.0,
        0.9998113512992859,
        1.0
      ],
      "min": [
        -1.0,
        -1.0,
        -0.9999914169311523,
        1.0
      ],
      "type": "VEC4"
    },
    {
      "bufferView": 1,
      "byteOffset": 96456,
      "componentType": 5126,
      "count": 13713,
      "max": [
        0.9934931397438049,
        0.9942362904548645
      ],
      "min": [
        0.005924219265580177,
        0.006831519305706024
      ],
      "type": "VEC2"
    },
    {
      "bufferView": 0,
      "byteOffset": 186720,
      "componentType": 5125,
      "count": 60000,
      "type": "SCALAR"
    }
  ],
  "asset": {
    "extras": {
      "author": "Korax254 (https://sketchfab.com/Tonifo254)",
      "license": "CC-BY-4.0 (http://creativecommons.org/licenses/by/4.0/)",
      "source": "https://sketchfab.com/3d-models/ufo-abduction-pigs-0963d712d6fc4e11a451ac8b4f235f29",
      "title": "UFO Abduction Pigs"
    },
    "generator": "Sketchfab-12.68.0",
    "version": "2.0"
  },
  "bufferViews": [
    {
      "buffer": 0,
      "byteLength": 426720,
      "name": "floatBufferViews",
      "target": 34963
    },
    {
      "buffer": 0,
      "byteLength": 206160,
      "byteOffset": 426720,
      "byteStride": 8,
      "name": "floatBufferViews",
      "target": 34962
    },
    {
      "buffer": 0,
      "byteLength": 618480,
      "byteOffset": 632880,
      "byteStride": 12,
      "name": "floatBufferViews",
      "target": 34962
    },
    {
      "buffer": 0,
      "byteLength": 412320,
      "byteOffset": 1251360,
      "byteStride": 16,
      "name": "floatBufferViews",
      "target": 34962
    }
  ],
  "buffers": [
    {
      "byteLength": 1663680,
      "uri": "scene.bin"
    }
  ],
  "extensionsUsed": [
    "KHR_materials_clearcoat"
  ],
  "images": [
    {
      "uri": "textures/Grass_baseColor.png"
    },
    {
      "uri": "textures/Grass_metallicRoughness.png"
    },
    {
      "uri": "textures/Grass_normal.png"
    },
    {
      "uri": "textures/Grass_clearcoat.png"
    },
    {
      "uri": "textures/material_baseColor.png"
    },
    {
      "uri": "textures/material_metallicRoughness.png"
    },
    {
      "uri": "textures/material_emissive.png"
    },
    {
      "uri": "textures/material_normal.png"
    },
    {
      "uri": "textures/material_clearcoat.png"
    },
    {
      "uri": "textures/Light_baseColor.png"
    },
    {
      "uri": "textures/Light_metallicRoughness.png"
    },
    {
      "uri": "textures/Light_emissive.png"
    },
    {
      "uri": "textures/Light_normal.png"
    },
    {
      "uri": "textures/material_3_baseColor.png"
    },
    {
      "uri": "textures/material_3_metallicRoughness.png"
    },
    {
      "uri": "textures/material_3_normal.png"
    }
  ],
  "materials": [
    {
      "doubleSided": true,
      "extensions": {
        "KHR_materials_clearcoat": {
          "clearcoatFactor": 0.5200076219512195,
          "clearcoatNormalTexture": {
            "index": 2
          },
          "clearcoatRoughnessFactor": 1.0,
          "clearcoatRoughnessTexture": {
            "index": 1
          },
          "clearcoatTexture": {
            "index": 3
          }
        }
      },
      "name": "Grass",
      "normalTexture": {
        "index": 2
      },
      "pbrMetallicRoughness": {
        "baseColorTexture": {
          "index": 0
        },
        "metallicRoughnessTexture": {
          "index": 1
        }
      }
    },
    {
      "alphaMode": "BLEND",
      "doubleSided": true,
      "emissiveFactor": [
        1.0,
        1.0,
        1.0
      ],
      "emissiveTexture": {
        "index": 6
      },
      "extensions": {
        "KHR_materials_clearcoat": {
          "clearcoatFactor": 1.0,
          "clearcoatNormalTexture": {
            "index": 7
          },
          "clearcoatRoughnessFactor": 1.0,
          "clearcoatRoughnessTexture": {
            "index": 5
          },
          "clearcoatTexture": {
            "index": 8
          }
        }
      },
      "name": "material",
      "normalTexture": {
        "index": 7
      },
      "pbrMetallicRoughness": {
        "baseColorTexture": {
          "index": 4
        },
        "metallicFactor": 0.0,
        "metallicRoughnessTexture": {
          "index": 5
        }
      }
    },
    {
      "alphaMode": "BLEND",
      "doubleSided": true,
      "emissiveFactor": [
        1.0,
        1.0,
        1.0
      ],
      "emissiveTexture": {
        "index": 11
      },
      "name": "Light",
      "normalTexture": {
        "index": 12
      },
      "pbrMetallicRoughness": {
        "baseColorFactor": [
          1.0,
          1.0,
          1.0,
          0.75
        ],
        "baseColorTexture": {
          "index": 9
        },
        "metallicRoughnessTexture": {
          "index": 10
        }
      }
    },
    {
      "alphaMode": "BLEND",
      "doubleSided": true,
      "name": "material_3",
      "normalTexture": {
        "index": 15
      },
      "pbrMetallicRoughness": {
        "baseColorTexture": {
          "index": 13
        },
        "metallicRoughnessTexture": {
          "index": 14
        }
      }
    }
  ],
  "meshes": [
    {
      "name": "Grass_Grass_0",
      "primitives": [
        {
          "attributes": {
            "NORMAL": 1,
            "POSITION": 0,
            "TANGENT": 2,
            "TEXCOORD_0": 3
          },
          "indices": 4,
          "material": 0,
          "mode": 4
        }
      ]
    },
    {
      "name": "UFO_UFO_0",
      "primitives": [
        {
          "attributes": {
            "NORMAL": 6,
            "POSITION": 5,
            "TANGENT": 7,
            "TEXCOORD_0": 8
          },
          "indices": 9,
          "material": 1,
          "mode": 4
        }
      ]
    },
    {
      "name": "Light_Light_0",
      "primitives": [
        {
          "attributes": {
            "NORMAL": 11,
            "POSITION": 10,
            "TANGENT": 12,
            "TEXCOORD_0": 13
          },
          "indices": 14,
          "material": 2,
          "mode": 4
        }
      ]
    },
    {
      "name": "Pig_Pig_0",
      "primitives": [
        {
          "attributes": {
            "NORMAL": 16,
            "POSITION": 15,
            "TANGENT": 17,
            "TEXCOORD_0": 18
          },
          "indices": 19,
          "material": 3,
          "mode": 4
        }
      ]
    }
  ],
  "nodes": [
    {
      "children": [
        1
      ],
      "matrix": [
        1.0,
        0.0,
        0.0,
        0.0,
        0.0,
        2.220446049250313e-16,
        -1.0,
        0.0,
        0.0,
        1.0,
        2.220446049250313e-16,
        0.0,
        0.0,
        0.0,
        0.0,
        1.0
      ],
      "name": "Sketchfab_model"
    },
    {
      "children": [
        2
      ],
      "matrix": [
        1.0,
        0.0,
        0.0,
        0.0,
        0.0,
        0.0,
        1.0,
        0.0,
        0.0,
        -1.0,
        0.0,
        0.0,
        0.0,
        0.0,
        0.0,
        1.0
      ],
      "name": "UFO.FBX"
    },
    {
      "children": [
        3,
        5,
        7,
        9
      ],
      "name": "RootNode"
    },
    {
      "children": [
        4
      ],
      "matrix": [
        1.0,
        0.0,
        0.0,
        0.0,
        0.0,
        2.220446049250313e-16,
        -1.0,
        0.0,
        0.0,
        0.352751761674881,
        7.832662555770775e-17,
        0.0,
        0.0,
        -81.49072265625,
        0.0,
        1.0
      ],
      "name": "Grass"
    },
    {
      "mesh": 0,
      "name": "Grass_Grass_0"
    },
    {
      "children": [
        6
      ],
      "matrix": [
        1.0,
        0.0,
        0.0,
        0.0,
        0.0,
        2.220446049250313e-16,
        -1.0,
        0.0,
        0.0,
        1.0,
        2.220446049250313e-16,
        0.0,
        0.0,
        29.42296600341797,
        0.0,
        1.0
      ],
      "name": "UFO"
    },
    {
      "mesh": 1,
      "name": "UFO_UFO_0"
    },
    {
      "children": [
        8
      ],
      "matrix": [
        1.0,
        0.0,
        0.0,
        0.0,
        0.0,
        2.220446049250313e-16,
        -1.0,
        0.0,
        0.0,
        1.0,
        2.220446049250313e-16,
        0.0,
        -0.14071941375732422,
        10.526897430419922,
        0.043712615966796875,
        1.0
      ],
      "name": "Light"
    },
    {
      "mesh": 2,
      "name": "Light_Light_0"
    },
    {
      "children": [
        10
      ],
      "matrix": [
        1.0,
        0.0,
        0.0,
        0.0,
        0.0,
        2.220446049250313e-16,
        -1.0,
        0.0,
        0.0,
        1.0,
        2.220446049250313e-16,
        0.0,
        0.0,
        -60.08577346801758,
        0.0,
        1.0
      ],
      "name": "Pig"
    },
    {
      "mesh": 3,
      "name": "Pig_Pig_0"
    }
  ],
  "samplers": [
    {
      "magFilter": 9729,
      "minFilter": 9987,
      "wrapS": 10497,
      "wrapT": 10497
    }
  ],
  "scene": 0,
  "scenes": [
    {
      "name": "Sketchfab_Scene",
      "nodes": [
        0
      ]
    }
  ],
  "textures": [
    {
      "sampler": 0,
      "source": 0
    },
    {
      "sampler": 0,
      "source": 1
    },
    {
      "sampler": 0,
      "source": 2
    },
    {
      "sampler": 0,
      "source": 3
    },
    {
      "sampler": 0,
      "source": 4
    },
    {
      "sampler": 0,
      "source": 5
    },
    {
      "sampler": 0,
      "source": 6
    },
    {
      "sampler": 0,
      "source": 7
    },
    {
      "sampler": 0,
      "source": 8
    },
    {
      "sampler": 0,
      "source": 9
    },
    {
      "sampler": 0,
      "source": 10
    },
    {
      "sampler": 0,
      "source": 11
    },
    {
      "sampler": 0,
      "source": 12
    },
    {
      "sampler": 0,
      "source": 13
    },
    {
      "sampler": 0,
      "source": 14
    },
    {
      "sampler": 0,
      "source": 15
    }
  ]
}
