{
  "accessors": [
    {
      "bufferView": 2,
      "componentType": 5126,
      "count": 3366,
      "max": [
        142.26377868652344,
        72.93626403808594,
        289.8893737792969
      ],
      "min": [
        -142.26377868652344,
        -45.63262176513672,
        0.8648614883422852
      ],
      "type": "VEC3"
    },
    {
      "bufferView": 2,
      "byteOffset": 40392,
      "componentType": 5126,
      "count": 3366,
      "max": [
        0.9997962117195129,
        0.9979314208030701,
        0.9987311959266663
      ],
      "min": [
        -0.9997962117195129,
        -0.9999451637268066,
        -0.9997570514678955
      ],
      "type": "VEC3"
    },
    {
      "bufferView": 3,
      "componentType": 5126,
      "count": 3366,
      "max": [
        0.9994383454322815,
        0.9995648264884949,
        0.9995036125183105,
        1.0
      ],
      "min": [
        -0.9999371767044067,
        -0.999600887298584,
        -0.9999904632568359,
        -1.0
      ],
      "type": "VEC4"
    },
    {
      "bufferView": 1,
      "componentType": 5126,
      "count": 3366,
      "max": [
        0.9982797503471375,
        0.998046875
      ],
      "min": [
        0.001953125,
        0.001953125
      ],
      "type": "VEC2"
    },
    {
      "bufferView": 0,
      "componentType": 5125,
      "count": 16428,
      "type": "SCALAR"
    }
  ],
  "asset": {
    "extras": {
      "author": "KIFIR (https://sketchfab.com/kifir)",
      "license": "CC-BY-NC-4.0 (http://creativecommons.org/licenses/by-nc/4.0/)",
      "source": "https://sketchfab.com/3d-models/zombie-bind-hunter-9452e825662c43d2aeb6bd9c893f8708",
      "title": "Zombie Bind Hunter"
    },
    "generator": "Sketchfab-12.67.0",
    "version": "2.0"
  },
  "bufferViews": [
    {
      "buffer": 0,
      "byteLength": 65712,
      "name": "floatBufferViews",
      "target": 34963
    },
    {
      "buffer": 0,
      "byteLength": 26928,
      "byteOffset": 65712,
      "byteStride": 8,
      "name": "floatBufferViews",
      "target": 34962
    },
    {
      "buffer": 0,
      "byteLength": 80784,
      "byteOffset": 92640,
      "byteStride": 12,
      "name": "floatBufferViews",
      "target": 34962
    },
    {
      "buffer": 0,
      "byteLength": 53856,
      "byteOffset": 173424,
      "byteStride": 16,
      "name": "floatBufferViews",
      "target": 34962
    }
  ],
  "buffers": [
    {
      "byteLength": 227280,
      "uri": "scene.bin"
    }
  ],
  "images": [
    {
      "uri": "textures/Blind_Hunter_baseColor.png"
    },
    {
      "uri": "textures/Blind_Hunter_metallicRoughness.png"
    },
    {
      "uri": "textures/Blind_Hunter_normal.png"
    }
  ],
  "materials": [
    {
      "doubleSided": true,
      "name": "Blind_Hunter",
      "normalTexture": {
        "index": 2
      },
      "occlusionTexture": {
        "index": 1
      },
      "pbrMetallicRoughness": {
        "baseColorTexture": {
          "index": 0
        },
        "metallicRoughnessTexture": {
          "index": 1
        }
      }
    }
  ],
  "meshes": [
    {
      "name": "BlindHunter_Blind Hunter_0",
      "primitives": [
        {
          "attributes": {
            "NORMAL": 1,
            "POSITION": 0,
            "TANGENT": 2,
            "TEXCOORD_0": 3
          },
          "indices": 4,
          "material": 0,
          "mode": 4
        }
      ]
    }
  ],
  "nodes": [
    {
      "children": [
        1
      ],
      "matrix": [
        1.0,
        0.0,
        0.0,
        0.0,
        0.0,
        2.220446049250313e-16,
        -1.0,
        0.0,
        0.0,
        1.0,
        2.220446049250313e-16,
        0.0,
        0.0,
        0.0,
        0.0,
        1.0
      ],
      "name": "Sketchfab_model"
    },
    {
      "children": [
        2
      ],
      "matrix": [
        0.009999999776482582,
        0.0,
        0.0,
        0.0,
        0.0,
        0.0,
        0.009999999776482582,
        0.0,
        0.0,
        -0.009999999776482582,
        0.0,
        0.0,
        0.0,
        0.0,
        0.0,
        1.0
      ],
      "name": "aa1908cda32e4282b98e1e08fb54a1bd.fbx"
    },
    {
      "children": [
        3
      ],
      "name": "RootNode"
    },
    {
      "children": [
        4
      ],
      "matrix": [
        1.0,
        0.0,
        0.0,
        0.0,
        0.0,
        0.999999999999999,
        4.371138828673792e-08,
        0.0,
        0.0,
        -4.371138828673792e-08,
        0.999999999999999,
        0.0,
        0.0,
        0.0,
        1.4545448721037246e-06,
        1.0
      ],
      "name": "BlindHunter"
    },
    {
      "children": [
        5
      ],
      "matrix": [
        1.0,
        0.0,
        0.0,
        0.0,
        0.0,
        6.123233995736766e-17,
        -1.0,
        0.0,
        -0.0,
        1.0,
        6.123233995736766e-17,
        0.0,
        0.0,
        0.0,
        0.0,
        1.0
      ],
      "name": "Object_4"
    },
    {
      "mesh": 0,
      "name": "BlindHunter_Blind Hunter_0"
    }
  ],
  "samplers": [
    {
      "magFilter": 9729,
      "minFilter": 9987,
      "wrapS": 10497,
      "wrapT": 10497
    }
  ],
  "scene": 0,
  "scenes": [
    {
      "name": "Sketchfab_Scene",
      "nodes": [
        0
      ]
    }
  ],
  "textures": [
    {
      "sampler": 0,
      "source": 0
    },
    {
      "sampler": 0,
      "source": 1
    },
    {
      "sampler": 0,
      "source": 2
    }
  ]
}
